<?xml version="1.0" encoding="utf-8" ?>
<svg baseProfile="full" height="200mm" version="1.1" viewBox="0,0,200,200" width="200mm" xmlns="http://www.w3.org/2000/svg" xmlns:ev="http://www.w3.org/2001/xml-events" xmlns:xlink="http://www.w3.org/1999/xlink"><defs /><rect fill="#1a1a1a" height="200" width="200" x="0" y="0" /><text alignment-baseline="middle" fill="#e1ed5e" style="dominant-baseline: central; font-size:9.0px; font-family:Arial;" text-anchor="middle" x="100.0" y="100.0">2020</text><line stroke="#e1ed5e" stroke-width="0.3" x1="100.0" x2="100.0" y1="15.0" y2="10.0" /><path d="M 100.0 14.0 a86.0,86.0 0 0,1 42.35913384403234,11.155469271406648" fill="none" id="id13" stroke="none" /><text fill="#e1ed5e" style="font-size:6.75px; font-family:Arial;" text-anchor="middle"><textPath startOffset="22.145653131862478" xlink:href="#id13">January</textPath></text><line stroke="#e1ed5e" stroke-width="0.3" x1="143.13028292997686" x2="145.6673583964461" y1="26.7553504044142" y2="22.446841604673864" /><path d="M 143.63769802327073 25.89364864446614 a86.0,86.0 0 0,1 29.32050498858742,28.57503671076992" fill="none" id="id14" stroke="none" /><text fill="#e1ed5e" style="font-size:6.75px; font-family:Arial;" text-anchor="middle"><textPath startOffset="20.669276256404974" xlink:href="#id14">February</textPath></text><line stroke="#e1ed5e" stroke-width="0.3" x1="172.87174338648825" x2="177.1583165268699" y1="56.24261187166439" y2="53.66864786411523" /><path d="M 173.72905801456457 55.72781907015455 a86.0,86.0 0 0,1 12.242430191666344,42.057860355516425" fill="none" id="id15" stroke="none" /><text fill="#e1ed5e" style="font-size:6.75px; font-family:Arial;" text-anchor="middle"><textPath startOffset="22.145653131862474" xlink:href="#id15">March</textPath></text><path d="M 120.16314734710363 94.1308016681162 l 28.08260867160285 -8.17443810397949 a50.2481511914544,50.2481511914544 0 0,0 0.23396857114118086,0.8302719191408593 l -28.21879573481861 7.691158260935619" fill="red" stroke="none" /><path d="M 120.26092885502905 94.47779374421319 l 60.782786565087164 -16.56661876736044 a84.0,84.0 0 0,0 0.3672420767810789,1.3944779825088056 l -61.058218122672976 15.520760280478832" fill="red" stroke="none" /><path d="M 120.43855184770803 95.1765574152323 l 31.766245538159197 -7.496747452003381 a53.63886606409203,53.63886606409203 0 0,0 0.20379994810845847,0.8979801749798988 l -31.89025634782532 6.950332943084456" fill="red" stroke="none" /><line stroke="#e1ed5e" stroke-width="0.3" x1="184.99686870605535" x2="189.99668451229388" y1="99.2704041080226" y2="99.22748670261217" /><path d="M 185.99683186730306 99.26182062694052 a86.0,86.0 0 0,1 -10.086455211305974,41.156179273409016" fill="none" id="id16" stroke="none" /><text fill="#e1ed5e" style="font-size:6.75px; font-family:Arial;" text-anchor="middle"><textPath startOffset="21.40746469413373" xlink:href="#id16">April</textPath></text><path d="M 120.99922638620191 99.81974689727618 l 57.97650012953032 -0.4976585251865756 a78.97863599013968,78.97863599013968 0 0,0 0.0,1.3558232558207979 l -57.97650012953032 -0.49765852518656856" fill="red" stroke="none" /><path d="M 120.99922638620191 100.18025310272382 l 36.269822402462125 0.31133280355421644 a57.27115858668858,57.27115858668858 0 0,0 -0.016877451539868294,0.9830269399331579 l -36.25913351932359 -0.9339066594564454" fill="red" stroke="none" /><path d="M 120.9064616781168 101.97986365728391 l 35.327969138083155 3.3455954077274987 a56.486031224322105,56.486031224322105 0 0,0 -0.09970485884245368,0.9645540643441455 l -35.265331886759036 -3.951553994354575" fill="red" stroke="none" /><path d="M 120.82617615685814 102.69636545807758 l 57.310488043810906 7.419990073214289 a78.78882497945767,78.78882497945767 0 0,0 -0.18517431175752685,1.3398290753972135 l -57.17466921549816 -8.402707456811589" fill="red" stroke="none" /><path d="M 120.592083275326 104.11899336999214 l 35.4566232567343 7.092317671995494 a57.15899753492194,57.15899753492194 0 0,0 -0.20071596786712625,0.960498566242467 l -35.329649578042805 -7.69993268952337" fill="red" stroke="none" /><path d="M 119.0197475246899 108.90220220490707 l 31.600599420643366 14.790676136665654 a55.89071487263763,55.89071487263763 0 0,0 -0.4141787867443263,0.8654743679631304 l -31.34204137593913 -15.330963006693889" fill="red" stroke="none" /><path d="M 118.8641267826498 109.22738970284198 l 46.18378451019319 22.590803302890425 a72.41290057518488,72.41290057518488 0 0,0 -0.5557865523475475,1.1119454113466234 l -45.789178044633914 -23.380280570400796" fill="red" stroke="none" /><line stroke="#e1ed5e" stroke-width="0.3" x1="174.33088141563837" x2="178.70328620479359" y1="141.23008692659167" y2="143.65538615756765" /><path d="M 175.20536237346943 141.71514677278685 a86.0,86.0 0 0,1 -30.301960400862466,31.63118572779886" fill="none" id="id17" stroke="none" /><text fill="#e1ed5e" style="font-size:6.75px; font-family:Arial;" text-anchor="middle"><textPath startOffset="22.145653131862474" xlink:href="#id17">May</textPath></text><path d="M 117.01052211995028 112.31430620078461 l 41.48498738867086 30.031931638396646 a72.21446179129006,72.21446179129006 0 0,0 -0.7355489301903614,0.9979133900655207 l -40.96333643889667 -30.739651337731047" fill="red" stroke="none" /><path d="M 116.35404254752997 113.17365903436017 l 27.218663253921086 21.92542840928227 a55.95110928512736,55.95110928512736 0 0,0 -0.6089430473449056,0.7428115050062689 l -26.83827338733755 -22.389442195987034" fill="red" stroke="none" /><line stroke="#e1ed5e" stroke-width="0.3" x1="143.1302829299769" x2="145.6673583964461" y1="173.24464959558577" y2="177.55315839532614" /><path d="M 143.63769802327073 174.10635135553383 a86.0,86.0 0 0,1 -40.685524379131806,11.842963189579606" fill="none" id="id18" stroke="none" /><text fill="#e1ed5e" style="font-size:6.75px; font-family:Arial;" text-anchor="middle"><textPath startOffset="21.407464694133747" xlink:href="#id18">June</textPath></text><line stroke="#e1ed5e" stroke-width="0.3" x1="101.45913802915013" x2="101.54496967792366" y1="184.9874750549273" y2="189.98673829345242" /><path d="M 101.47630435890484 185.9873277026323 a86.0,86.0 0 0,1 -42.54439059252881,-10.42667462771756" fill="none" id="id19" stroke="none" /><text fill="#e1ed5e" style="font-size:6.75px; font-family:Arial;" text-anchor="middle"><textPath startOffset="22.145653131862474" xlink:href="#id19">July</textPath></text><line stroke="#e1ed5e" stroke-width="0.3" x1="58.13341422392154" x2="55.670673884152215" y1="173.97424548756322" y2="178.32567169271397" /><path d="M 57.64086615596767 174.84453072859336 a86.0,86.0 0 0,1 -31.369924170532244,-30.572349798747886" fill="none" id="id20" stroke="none" /><text fill="#e1ed5e" style="font-size:6.75px; font-family:Arial;" text-anchor="middle"><textPath startOffset="22.145653131862474" xlink:href="#id20">August</textPath></text><line stroke="#e1ed5e" stroke-width="0.3" x1="26.387840678322732" x2="22.057713659400548" y1="142.50000000000003" y2="145.00000000000006" /><path d="M 25.521815274538298 143.00000000000003 a86.0,86.0 0 0,1 -11.493303480769221,-40.785679425670985" fill="none" id="id21" stroke="none" /><text fill="#e1ed5e" style="font-size:6.75px; font-family:Arial;" text-anchor="middle"><textPath startOffset="21.40746469413373" xlink:href="#id21">September</textPath></text><line stroke="#e1ed5e" stroke-width="0.3" x1="15.003131293944662" x2="10.003315487706104" y1="100.72959589197737" y2="100.7725132973878" /><path d="M 14.003168132696942 100.73817937305945 a86.0,86.0 0 0,1 10.791469493833604,-42.453326145846276" fill="none" id="id22" stroke="none" /><text fill="#e1ed5e" style="font-size:6.75px; font-family:Arial;" text-anchor="middle"><textPath startOffset="22.145653131862435" xlink:href="#id22">October</textPath></text><line stroke="#e1ed5e" stroke-width="0.3" x1="26.387840678322718" x2="22.05771365940052" y1="57.5" y2="55.0" /><path d="M 25.521815274538284 57.0 a86.0,86.0 0 0,1 29.574782752854787,-30.346332500585742" fill="none" id="id23" stroke="none" /><text fill="#e1ed5e" style="font-size:6.75px; font-family:Arial;" text-anchor="middle"><textPath startOffset="21.40746469413373" xlink:href="#id23">November</textPath></text><line stroke="#e1ed5e" stroke-width="0.3" x1="56.869717070023135" x2="54.33264160355391" y1="26.7553504044142" y2="22.446841604673864" /><path d="M 56.362301976729285 25.89364864446614 a86.0,86.0 0 0,1 42.16139366436587,-11.88097634709845" fill="none" id="id24" stroke="none" /><text fill="#e1ed5e" style="font-size:6.75px; font-family:Arial;" text-anchor="middle"><textPath startOffset="22.145653131862474" xlink:href="#id24">December</textPath></text></svg>