<?xml version="1.0" encoding="utf-8" ?>
<svg baseProfile="full" height="200mm" version="1.1" viewBox="0,0,200,200" width="200mm" xmlns="http://www.w3.org/2000/svg" xmlns:ev="http://www.w3.org/2001/xml-events" xmlns:xlink="http://www.w3.org/1999/xlink"><defs /><rect fill="#1a1a1a" height="200" width="200" x="0" y="0" /><text alignment-baseline="middle" fill="#e1ed5e" style="dominant-baseline: central; font-size:9.0px; font-family:Arial;" text-anchor="middle" x="100.0" y="100.0">2024</text><line stroke="#e1ed5e" stroke-width="0.3" x1="100.0" x2="100.0" y1="15.0" y2="10.0" /><path d="M 100.0 14.0 a86.0,86.0 0 0,1 42.35913384403234,11.155469271406648" fill="none" id="id61" stroke="none" /><text fill="#e1ed5e" style="font-size:6.75px; font-family:Arial;" text-anchor="middle"><textPath startOffset="22.145653131862478" xlink:href="#id61">January</textPath></text><line stroke="#e1ed5e" stroke-width="0.3" x1="143.13028292997686" x2="145.6673583964461" y1="26.7553504044142" y2="22.446841604673864" /><path d="M 143.63769802327073 25.89364864446614 a86.0,86.0 0 0,1 29.32050498858742,28.57503671076993" fill="none" id="id62" stroke="none" /><text fill="#e1ed5e" style="font-size:6.75px; font-family:Arial;" text-anchor="middle"><textPath startOffset="20.669276256404974" xlink:href="#id62">February</textPath></text><line stroke="#e1ed5e" stroke-width="0.3" x1="172.87174338648825" x2="177.1583165268699" y1="56.24261187166439" y2="53.66864786411523" /><path d="M 173.72905801456457 55.72781907015455 a86.0,86.0 0 0,1 12.242430191666344,42.057860355516425" fill="none" id="id63" stroke="none" /><text fill="#e1ed5e" style="font-size:6.75px; font-family:Arial;" text-anchor="middle"><textPath startOffset="22.145653131862474" xlink:href="#id63">March</textPath></text><path d="M 120.7213421655516 96.59031103205396 l 12.915552474289564 -2.125249244700219 a34.08923909431813,34.08923909431813 0 0,0 0.09005810090927076,0.5782376111600405 l -12.9501320673371 1.9032234516087372" fill="red" stroke="none" /><path d="M 120.77682067341334 96.94652285012252 l 5.88185116515105 -0.8644295686082176 a26.945032515308302,26.945032515308302 0 0,0 0.06332786220135994,0.45820886414978335 l -5.895823543907623 0.7633323962583487" fill="red" stroke="none" /><path d="M 120.98066250479742 99.09900007780936 l 62.94198751439227 -2.7029997665719256 a84.0,84.0 0 0,0 0.049501252012607466,1.4411749417435202 l -62.97911345340172 1.6221185602642854" fill="red" stroke="none" /><path d="M 120.99303781780057 99.45929381324524 l 27.120449862308845 -0.6985265855944177 a48.12944415436465,48.12944415436465 0 0,0 0.014183445584165195,0.8261145989588251 l -27.128444739491677 0.2328650706665262" fill="red" stroke="none" /><line stroke="#e1ed5e" stroke-width="0.3" x1="184.99686870605535" x2="189.99668451229388" y1="99.2704041080226" y2="99.22748670261217" /><path d="M 185.99683186730306 99.26182062694052 a86.0,86.0 0 0,1 -10.086455211305974,41.156179273409016" fill="none" id="id64" stroke="none" /><text fill="#e1ed5e" style="font-size:6.75px; font-family:Arial;" text-anchor="middle"><textPath startOffset="21.40746469413373" xlink:href="#id64">April</textPath></text><path d="M 120.96210409425399 101.26102812881392 l 48.31025195728959 2.9062247928121283 a69.39758864574927,69.39758864574927 0 0,0 -0.0817438784662868,1.1885380525845521 l -48.253244117658234 -3.7351062695510238" fill="red" stroke="none" /><path d="M 120.43855184770803 104.8234425847677 l 17.60274764915814 4.154200515404438 a39.08629610290976,39.08629610290976 0 0,0 -0.15971865466224536,0.6517066151465233 l -17.528841467979596 -4.455762955159061" fill="red" stroke="none" /><path d="M 119.0197475246899 108.90220220490707 l 27.461131649427678 12.85319620575585 a51.32026391987469,51.32026391987469 0 0,0 -0.38030940728114554,0.7947003913077425 l -27.236442984186617 -13.322709099128696" fill="red" stroke="none" /><line stroke="#e1ed5e" stroke-width="0.3" x1="174.33088141563837" x2="178.70328620479359" y1="141.23008692659167" y2="143.65538615756765" /><path d="M 175.20536237346943 141.71514677278685 a86.0,86.0 0 0,1 -30.301960400862466,31.631185727798858" fill="none" id="id65" stroke="none" /><text fill="#e1ed5e" style="font-size:6.75px; font-family:Arial;" text-anchor="middle"><textPath startOffset="22.145653131862474" xlink:href="#id65">May</textPath></text><path d="M 118.18653347947321 110.5 l 29.148350640072767 16.828808088479605 a54.65761617695922,54.65761617695922 0 0,0 -0.4761102352572604,0.8085392671062844 l -28.855166694685742 -17.32669852387944" fill="red" stroke="none" /><path d="M 117.423217284605 111.72311816256416 l 17.73997297929355 11.936245530308119 a42.38178193383016,42.38178193383016 0 0,0 -0.41132581572236315,0.6001366577598585 l -17.53245742675587 -12.239016923138022" fill="red" stroke="none" /><path d="M 114.65682725009322 115.03919595460226 l 21.0199231835129 21.56829294044705 a51.11691270707742,51.11691270707742 0 0,0 -0.6336732769177764,0.6070446650177932 l -20.646577420729813 -21.925949735770427" fill="red" stroke="none" /><line stroke="#e1ed5e" stroke-width="0.3" x1="143.1302829299769" x2="145.66735839644613" y1="173.24464959558577" y2="177.55315839532614" /><path d="M 143.63769802327073 174.10635135553383 a86.0,86.0 0 0,1 -40.68552437913181,11.842963189579606" fill="none" id="id66" stroke="none" /><text fill="#e1ed5e" style="font-size:6.75px; font-family:Arial;" text-anchor="middle"><textPath startOffset="21.407464694133747" xlink:href="#id66">June</textPath></text><path d="M 101.44090949804482 120.95050786540614 l 1.0577521900253044 15.379484698272458 a36.41581620543979,36.41581620543979 0 0,0 -0.6240208158682672,0.037539542702252876 l -0.793587022024572 -15.395376218799402" fill="red" stroke="none" /><line stroke="#e1ed5e" stroke-width="0.3" x1="101.45913802915013" x2="101.54496967792366" y1="184.9874750549273" y2="189.98673829345242" /><path d="M 101.47630435890484 185.9873277026323 a86.0,86.0 0 0,1 -42.54439059252881,-10.42667462771756" fill="none" id="id67" stroke="none" /><text fill="#e1ed5e" style="font-size:6.75px; font-family:Arial;" text-anchor="middle"><textPath startOffset="22.145653131862474" xlink:href="#id67">July</textPath></text><path d="M 100.36049292484886 120.99690560180557 l 0.25872943578652324 15.069692538059535 a36.07191341909147,36.07191341909147 0 0,0 -0.6192223606353736,0.005315279226373766 l -1.845777052571641e-15 -15.071913419091473" fill="red" stroke="none" /><path d="M 99.63950707515114 120.99690560180557 l -0.25939679345819106 15.108562776748968 a36.11078938624389,36.11078938624389 0 0,0 -0.6197070339617995,-0.01596145494266776 l 0.5187171414907344 -15.101883604456253" fill="red" stroke="none" /><path d="M 98.91894614982273 120.97215588758144 l -0.7768070054579898 15.069848380225372 a36.08985617316182,36.08985617316182 0 0,0 -0.6184351702209513,-0.03720352413049013 l 1.0353865278113874 -15.054292878270191" fill="red" stroke="none" /><path d="M 95.35216902796893 120.47920084513623 l -3.4244853252891416 15.088914203171054 a36.47263492666255,36.47263492666255 0 0,0 -0.6093845173404491,-0.14381308682433105 l 3.6830019963694784 -15.027904972700496" fill="red" stroke="none" /><path d="M 94.6519064749342 120.30758222061772 l -3.893215089970534 14.783171829657446 a36.28722646793563,36.28722646793563 0 0,0 -0.6010177273353725,-0.16381005419237252 l 4.146414218240602 -14.714161281320928" fill="red" stroke="none" /><line stroke="#e1ed5e" stroke-width="0.3" x1="58.13341422392154" x2="55.67067388415222" y1="173.97424548756322" y2="178.32567169271397" /><path d="M 57.64086615596768 174.84453072859336 a86.0,86.0 0 0,1 -31.369924170532247,-30.572349798747897" fill="none" id="id68" stroke="none" /><text fill="#e1ed5e" style="font-size:6.75px; font-family:Arial;" text-anchor="middle"><textPath startOffset="22.145653131862474" xlink:href="#id68">August</textPath></text><line stroke="#e1ed5e" stroke-width="0.3" x1="26.387840678322732" x2="22.057713659400548" y1="142.50000000000003" y2="145.00000000000006" /><path d="M 25.521815274538298 143.00000000000003 a86.0,86.0 0 0,1 -11.493303480769221,-40.785679425670985" fill="none" id="id69" stroke="none" /><text fill="#e1ed5e" style="font-size:6.75px; font-family:Arial;" text-anchor="middle"><textPath startOffset="21.40746469413373" xlink:href="#id69">September</textPath></text><path d="M 79.22317932658666 103.0534771498775 l -16.482793179605885 2.422402981245673 a37.65984715431718,37.65984715431718 0 0,0 -0.0885104744170537,-0.6404177014383047 l 16.52194817057815 -2.139096971607283" fill="red" stroke="none" /><path d="M 79.17382384314188 102.69636545807758 l -16.29358880796201 2.1095312802029103 a37.42958181041439,37.42958181041439 0 0,0 -0.07702992561997327,-0.6379182857171539 l 16.327400819841642 -1.829519317562357" fill="red" stroke="none" /><line stroke="#e1ed5e" stroke-width="0.3" x1="15.003131293944662" x2="10.003315487706104" y1="100.72959589197737" y2="100.7725132973878" /><path d="M 14.003168132696942 100.73817937305945 a86.0,86.0 0 0,1 10.791469493833604,-42.45332614584628" fill="none" id="id70" stroke="none" /><text fill="#e1ed5e" style="font-size:6.75px; font-family:Arial;" text-anchor="middle"><textPath startOffset="22.145653131862435" xlink:href="#id70">October</textPath></text><path d="M 79.01933749520258 99.09900007780938 l -15.288088010212434 -0.6565362797526109 a36.30217876299426,36.30217876299426 0 0,0 0.032081463671648616,-0.6223718245980397 l 15.274564957084214 0.9188798977273626" fill="red" stroke="none" /><path d="M 79.56144815229197 95.17655741523228 l -14.712613982555286 -3.472136839512146 a36.116770304267334,36.116770304267334 0 0,0 0.14758425685961377,-0.6021941312383671 l 14.650842199179374 3.7241867953586305" fill="red" stroke="none" /><path d="M 80.5471966667186 92.08871423366112 l -14.014107190829819 -5.699415392591497 a36.128732140314234,36.128732140314234 0 0,0 0.23857721035837431,-0.5724984538762441 l 13.914204135934964 5.939146355909005" fill="red" stroke="none" /><path d="M 81.1358732173502 90.77261029715801 l -15.105091123392961 -7.38865699422041 a37.81535102292685,37.81535102292685 0 0,0 0.29024197903827215,-0.5806783834704139 l 14.976029231142945 7.646867233854595" fill="red" stroke="none" /><line stroke="#e1ed5e" stroke-width="0.3" x1="26.387840678322718" x2="22.05771365940052" y1="57.49999999999999" y2="54.99999999999999" /><path d="M 25.521815274538284 56.99999999999999 a86.0,86.0 0 0,1 29.574782752854787,-30.34633250058573" fill="none" id="id71" stroke="none" /><text fill="#e1ed5e" style="font-size:6.75px; font-family:Arial;" text-anchor="middle"><textPath startOffset="21.40746469413373" xlink:href="#id71">November</textPath></text><path d="M 82.37810715431573 88.57770195909679 l -13.244650463690357 -8.585022413236887 a36.7836426638819,36.7836426638819 0 0,0 0.3480005164183879,-0.526917136251498 l 13.09532550835124 8.811119427827446" fill="red" stroke="none" /><path d="M 82.78059297857968 87.97951657250589 l -14.241750032810915 -9.941847592949044 a38.36858594009588,38.36858594009588 0 0,0 0.38164849017339136,-0.5368363965787181 l 14.068986444107551 10.184861216237282" fill="red" stroke="none" /><path d="M 84.34580500576568 86.00192230759919 l -12.70421853213196 -11.360190549531342 a38.042625907817914,38.042625907817914 0 0,0 0.4394870719642584,-0.4830732788919898 l 12.507333759325837 11.57660140398099" fill="red" stroke="none" /><line stroke="#e1ed5e" stroke-width="0.3" x1="56.869717070023135" x2="54.33264160355391" y1="26.7553504044142" y2="22.446841604673864" /><path d="M 56.362301976729285 25.89364864446614 a86.0,86.0 0 0,1 42.16139366436587,-11.88097634709845" fill="none" id="id72" stroke="none" /><text fill="#e1ed5e" style="font-size:6.75px; font-family:Arial;" text-anchor="middle"><textPath startOffset="22.145653131862474" xlink:href="#id72">December</textPath></text><path d="M 99.27912038922189 79.0123766808444 l -0.5947847056792693 -17.316507738812493 a38.32671951393174,38.32671951393174 0 0,0 0.657735210865048,-0.016940925884469354 l 0.2974361807434774 17.32416638204701" fill="red" stroke="none" /></svg>