<?xml version="1.0" encoding="utf-8" ?>
<svg baseProfile="full" height="200mm" version="1.1" viewBox="0,0,200,200" width="200mm" xmlns="http://www.w3.org/2000/svg" xmlns:ev="http://www.w3.org/2001/xml-events" xmlns:xlink="http://www.w3.org/1999/xlink"><defs /><rect fill="#1a1a1a" height="200" width="200" x="0" y="0" /><text alignment-baseline="middle" fill="#e1ed5e" style="dominant-baseline: central; font-size:9.0px; font-family:Arial;" text-anchor="middle" x="100.0" y="100.0">2025</text><line stroke="#e1ed5e" stroke-width="0.3" x1="100.0" x2="100.0" y1="15.0" y2="10.0" /><path d="M 100.0 14.0 a86.0,86.0 0 0,1 42.46469731375804,11.215312516191453" fill="none" id="id73" stroke="none" /><text fill="#e1ed5e" style="font-size:6.75px; font-family:Arial;" text-anchor="middle"><textPath startOffset="22.20632615414155" xlink:href="#id73">January</textPath></text><path d="M 101.08401301168833 79.027996857942 l 0.9033449995303343 -17.476685209715477 a38.500015945925995,38.500015945925995 0 0,0 0.6615365177890574,0.03990568933090326 l -1.2040435661590037 17.458546251004268" fill="#ffa10e" stroke="none" /><path d="M 102.88285421437855 79.19881850522331 l 2.7743418920578504 -20.018212831375376 a41.20954769153107,41.20954769153107 0 0,0 0.7018005979521996,0.1034271651702522 l -3.1185114704387056 19.967491182044153" fill="#ffc812" stroke="none" /><path d="M 104.66035177308747 79.52364482259891 l 4.695134795845829 -20.629182595334786 a42.156735695820984,42.156735695820984 0 0,0 0.706178145370061,0.16712955130828852 l -5.049536628178413 20.54530713188563" fill="#ffd513" stroke="none" /><path d="M 105.01212808612495 79.60689891045804 l 3.7623192459579213 -15.307940139508322 a36.76350460472783,36.76350460472783 0 0,0 0.613234708753491,0.15632718150162977 l -4.025262843396438 15.240909961837824" fill="#ff880c" stroke="none" /><path d="M 105.71112130821622 79.79150937346287 l 4.404102534257211 -15.583676125703438 a37.19404460667779,37.19404460667779 0 0,0 0.6146046343308762,0.17941994632994018 l -4.671697386311514 15.505557850454794" fill="#ff8e0d" stroke="none" /><path d="M 107.08798089147638 80.2323363322302 l 6.852186119765627 -19.110055836546383 a41.3013962252804,41.3013962252804 0 0,0 0.6671506461849955,0.24571721330584423 l -7.180119091723199 18.989275355434216" fill="#ffc912" stroke="none" /><path d="M 107.76421540070413 80.48803036053334 l 7.483639070675839 -18.80686338590128 a41.241120625007404,41.241120625007404 0 0,0 0.6573365861638581,0.268144098234982 l -7.806259526428084 18.67525840148272" fill="#ffc812" stroke="none" /><path d="M 109.08828744355905 81.06846463323043 l 8.797128413264446 -18.325030839529596 a41.327228625397396,41.327228625397396 0 0,0 0.63866062589383,0.31338799545345697 l -9.111260306168706 18.170887683941306" fill="#ffc912" stroke="none" /><line stroke="#e1ed5e" stroke-width="0.3" x1="143.23703022742887" x2="145.7803849466894" y1="26.81831364943548" y2="22.513508569990506" /><path d="M 143.74570117128098 25.957352633546492 a86.0,86.0 0 0,1 28.547481713284135,27.462654790039103" fill="none" id="id74" stroke="none" /><text fill="#e1ed5e" style="font-size:6.75px; font-family:Arial;" text-anchor="middle"><textPath startOffset="19.985693538727396" xlink:href="#id74">February</textPath></text><path d="M 111.90073688211348 82.69761687909136 l 11.960280743177698 -17.38895344901831 a42.10507089558699,42.10507089558699 0 0,0 0.5936190646574298,0.4158680904878007 l -12.25783094741878 17.180500515766575" fill="#ffd413" stroke="none" /><path d="M 112.19680574252982 82.90503203632743 l 11.866073804396416 -16.6314161119579 a41.43055822586538,41.43055822586538 0 0,0 0.5769790856776856,0.41919984351448486 l -12.15059820642789 16.42469703362674" fill="#ffcb12" stroke="none" /><path d="M 112.48926042617603 83.11751280151076 l 9.711260634499615 -13.127297193636204 a37.328947140622105,37.328947140622105 0 0,0 0.5132798601430784,0.3865917492523068 l -9.935786648401077 12.95818885487805" fill="#ff900d" stroke="none" /><path d="M 112.77801427241765 83.33499621200491 l 10.016125229140481 -13.062965913644868 a37.46097940788677,37.46097940788677 0 0,0 0.5083409325281281,0.39676816100846707 l -10.23949871682804 12.888619363413177" fill="#ff920d" stroke="none" /><path d="M 113.34407831869373 83.78471172551755 l 13.10808297300197 -15.928514435897652 a41.62860662676236,41.62860662676236 0 0,0 0.5493835511190919,0.46009292463712026 l -13.380324061080179 15.700520353866713" fill="#ffce13" stroke="none" /><path d="M 113.6212207817346 84.01681056812373 l 26.36782102088195 -30.940095974928937 a61.65158698411512,61.65158698411512 0 0,0 0.8017824156490608,0.6952978099557435 l -26.896497235177776 30.481633171553522" fill="#38ff2e" stroke="none" /><path d="M 113.89432698308785 84.25364557470407 l 10.410689673320949 -11.798369910785597 a36.73480193793117,36.73480193793117 0 0,0 0.47053609972100074,0.42245195622256715 l -10.61223676063794 11.617418945793734" fill="#ff870c" stroke="none" /><path d="M 114.42810811169701 84.74124197986012 l 21.89933390409964 -23.160114566510458 a52.874311477695294,52.874311477695294 0 0,0 0.655935434399803,0.6310093681956469 l -22.294752582111865 22.77972211155251" fill="#9dff22" stroke="none" /><path d="M 114.68862486808459 84.99185889309783 l 29.80731126399053 -30.455698711411085 a63.614849393006935,63.614849393006935 0 0,0 0.7759927139159957,0.7726603545927679 l -30.32713977807385 29.9381025061682" fill="#31ff3f" stroke="none" /><path d="M 115.19652480421416 85.50635884689758 l 13.513296220116281 -12.888266806607483 a39.67395501790955,39.67395501790955 0 0,0 0.4670808641476747,0.4982492996012909 l -13.733144406234418 12.653748090128136" fill="#ffb210" stroke="none" /><path d="M 115.68641384162765 86.03803664274999 l 11.157423324948406 -9.930857186163095 a35.93686780098391,35.93686780098391 0 0,0 0.40729842543625777,0.465612508925662 l -11.326713613962513 9.737329121034486" fill="#ff7b0b" stroke="none" /><path d="M 116.15771136456269 86.58626213691792 l 24.4892330358085 -20.3303639357439 a52.82838721082064,52.82838721082064 0 0,0 0.5748269589925653,0.7046698834201813 l -24.835558486877474 19.90580988271562" fill="#9dff22" stroke="none" /><path d="M 116.60985879189232 87.15038557335679 l 23.051864284616734 -17.833238174018597 a50.14468786533256,50.14468786533256 0 0,0 0.5222785574333414,0.6872573607779193 l -23.35541878227419 17.433796037359645" fill="#bfff1e" stroke="none" /><path d="M 116.82858285166822 87.43820079747576 l 33.411543552424156 -24.940252239382133 a62.693493788834026,62.693493788834026 0 0,0 0.6380925511818369,0.8703575227091933 l -33.835898716119615 24.361432273001444" fill="#30ff33" stroke="none" /><path d="M 117.04232023915458 87.72973835380427 l 25.70186606317388 -18.505028479987466 a52.67052254343898,52.67052254343898 0 0,0 0.5234130172928956,0.7403305937380984 l -26.01659170027066 18.059871385917575" fill="#9fff22" stroke="none" /><path d="M 117.2510076193507 88.02491185347247 l 13.180419395007526 -9.149418256958427 a37.04479073933514,37.04479073933514 0 0,0 0.35911490804524326,0.5269568151042064 l -13.335958768721502 8.921183418583814" fill="#ff8c0c" stroke="none" /><path d="M 117.45458315368197 88.32363383020206 l 13.09023358926205 -8.756803831443536 a36.7491532713295,36.7491532713295 0 0,0 0.34719788841805205,0.5288062039386449 l -13.239028113038026 8.530179563527216" fill="#ff870c" stroke="none" /><path d="M 117.65298651832404 88.62581576622439 l 14.01594939104026 -9.030766007750977 a37.67337914218208,37.67337914218208 0 0,0 0.3465455812587042,0.5481518864499187 l -14.16932256854492 8.788166473586852" fill="#ff950d" stroke="none" /><line stroke="#e1ed5e" stroke-width="0.3" x1="172.23445277983987" x2="176.4835382374775" y1="55.19839476539836" y2="52.563006222186495" /><path d="M 173.08426987136738 54.67131705675599 a86.0,86.0 0 0,1 12.851231095245387,41.99856678651699" fill="none" id="id75" stroke="none" /><text fill="#e1ed5e" style="font-size:6.75px; font-family:Arial;" text-anchor="middle"><textPath startOffset="22.20632615414155" xlink:href="#id75">March</textPath></text><path d="M 118.56541770881063 90.18545643968196 l 14.410516543442933 -7.618069496771112 a37.300244473825444,37.300244473825444 0 0,0 0.29518803677958516,0.5702093305931333 l -14.539514013382634 7.368887443917633" fill="#ff8f0d" stroke="none" /><path d="M 118.73160827565052 90.50648371742162 l 14.352617636735879 -7.274164995703866 a37.0907150062098,37.0907150062098 0 0,0 0.2837262846736368,0.5719748766894837 l -14.475703934362924 7.026030530515432" fill="#ff8c0c" stroke="none" /><path d="M 118.89224826269711 90.83032412892265 l 19.17785464154717 -9.308299812725316 a42.3174706298823,42.3174706298823 0 0,0 0.31242747992882797,0.6580519516712736 l -19.335240315317755 8.976805445413502" fill="#ffd714" stroke="none" /><path d="M 119.04729006885535 91.15688171328212 l 15.841515728922655 -7.3547678921961985 a38.465572745770004,38.465572745770004 0 0,0 0.27365083070932694,0.6029533316758128 l -15.965768876595329 7.080992551678323" fill="#ffa00e" stroke="none" /><path d="M 119.34039704204932 91.81776055985345 l 15.673153352158613 -6.630758056862967 a38.01806946774322,38.01806946774322 0 0,0 0.24979376633345582,0.6048954186402793 l -15.784968805378266 6.359988067769384" fill="#ff9a0e" stroke="none" /><path d="M 119.47837535516314 92.15188598940014 l 32.8796521544396 -13.2476787222661 a56.448166628548314,56.448166628548314 0 0,0 0.35537198693555405,0.9043829444754122 l -33.10281769125685 12.679746772894903" fill="#72ff27" stroke="none" /><path d="M 119.61058180528143 92.48833698450437 l 15.317919709285087 -5.86739608732976 a37.40320093962508,37.40320093962508 0 0,0 0.22512347495810994,0.603218988537796 l -15.416647772744822 5.602853961762631" fill="#ff910d" stroke="none" /><path d="M 119.7369772167798 92.82701384747503 l 13.660836435680915 -4.964741536091978 a35.535030465830616,35.535030465830616 0 0,0 0.20398278314216375,0.5766867965598875 l -13.744272299632888 4.728857113105476" fill="#ff750a" stroke="none" /><path d="M 119.85752413597 93.16781622104841 l 16.081124284226867 -5.532874880558835 a38.00633007702338,38.00633007702338 0 0,0 0.20751946002070815,0.6204567718864883 l -16.173981038019345 5.255245005750033" fill="#ff9a0e" stroke="none" /><path d="M 119.97218684219823 93.5106431181261 l 16.446959620939506 -5.3439411239905406 a38.29335674499002,38.29335674499002 0 0,0 0.1982948835297828,0.6286489697528128 l -16.536509988237494 5.060041987811309" fill="#ff9e0e" stroke="none" /><path d="M 120.18372546131832 94.20196356495316 l 18.171548952676652 -5.22001268352443 a39.90644661896253,39.90644661896253 0 0,0 0.18397485582870493,0.6618554418142684 l -18.258710579071717 4.906445938291209" fill="#ffb510" stroke="none" /><path d="M 120.28053869075195 94.5502522615342 l 15.109796776456648 -4.060275817462483 a36.64582367086151,36.64582367086151 0 0,0 0.15845596242611024,0.6105954614829043 l -15.177449070753061 3.799583930430729" fill="#ff860c" stroke="none" /><path d="M 120.45610955862082 95.25157060432595 l 15.855708136742061 -3.680548854608813 a37.27728234038811,37.27728234038811 0 0,0 0.13971101702373168,0.6262970947399304 l -15.916713540767832 3.4070735903189187" fill="#ff8f0d" stroke="none" /><path d="M 120.6074358757038 95.95851677861258 l 25.92972329787206 -5.085278065434701 a47.423675053008814,47.423675053008814 0 0,0 0.15020721027071174,0.8024129235059901 l -26.01341623205263 4.638187064466148" fill="#e2ff1b" stroke="none" /><path d="M 120.67395015179393 96.31383870115 l 25.917342350682894 -4.621057110067729 a47.32608598590016,47.32608598590016 0 0,0 0.13609210639154148,0.8032233156553085 l -25.993046318594658 4.174248006096582" fill="#e3ff1b" stroke="none" /><path d="M 120.73433829027371 96.67025291283417 l 16.202407777422817 -2.6019600600060637 a37.410003471655884,37.410003471655884 0 0,0 0.09663201022631727,0.6366842117231001 l -16.244795681088434 2.3226767358908815" fill="#ff910d" stroke="none" /><path d="M 120.78858239683441 97.02765380044208 l 28.513519894767583 -4.0768557892690644 a49.80349926512061,49.80349926512061 0 0,0 0.11403578598033876,0.8496990613185086 l -28.579471679805756 3.5854383858858916" fill="#c3ff1e" stroke="none" /><path d="M 120.83666639777658 97.38593545837742 l 25.840690963430504 -3.241844577678635 a47.043249907285826,47.043249907285826 0 0,0 0.09388409510372846,0.8043415927980841 l -25.89266541153782 2.7965592465556983" fill="#e7ff1a" stroke="none" /><path d="M 120.87857604477298 97.74499172005257 l 22.84993920840779 -2.467927027243549 a43.982828060091535,43.982828060091535 0 0,0 0.0748187161395617,0.7534142610492626 l -22.88903505022958 2.0742372354898517" fill="#ffee16" stroke="none" /><path d="M 120.91429891909075 98.10471618934814 l 28.64270216508627 -2.5956428143645933 a49.76007213025726,49.76007213025726 0 0,0 0.06996151499166757,0.853707688917584 l -28.683138163897432 2.1022212082392406" fill="#c4ff1e" stroke="none" /><path d="M 120.96714384426684 98.82574320788733 l 30.487671768100675 -1.70745028103496 a51.53544688229811,51.53544688229811 0 0,0 0.04198026401097258,0.8861370230675334 l -30.512545640345145 1.182402151344427" fill="#adff20" stroke="none" /><path d="M 120.98425023603335 99.18683210126433 l 32.759225389300504 -1.2694640110744868 a53.783812880481186,53.783812880481186 0 0,0 0.0278864089515758,0.9254141513821763 l -32.77622349270773 0.7053797122673113" fill="#92ff23" stroke="none" /><line stroke="#e1ed5e" stroke-width="0.3" x1="184.98032266829074" x2="189.97916517819016" y1="98.17113171792111" y2="98.06355123074" /><path d="M 185.9800911702706 98.14961562048488 a86.0,86.0 0 0,1 -9.607161424134198,41.387399972396054" fill="none" id="id76" stroke="none" /><text fill="#e1ed5e" style="font-size:6.75px; font-family:Arial;" text-anchor="middle"><textPath startOffset="21.466115282336823" xlink:href="#id76">April</textPath></text><path d="M 120.99513854157772 99.54816195383933 l 32.11294363589755 -0.6911052137225489 a53.1203794401431,53.1203794401431 0 0,0 0.011805353940542714,0.9143376726515327 l -32.12008199695581 0.1382312830105535" fill="#9aff23" stroke="none" /><path d="M 120.99980553446 99.90962569577887 l 30.936366277215935 -0.13313706990502933 a51.936652758781875,51.936652758781875 0 0,0 -0.0038475234033798936,0.8940289383869571 l -30.934074456523053 -0.39940134668561245" fill="#a8ff21" stroke="none" /><path d="M 120.99824983174949 100.27111621757518 l 32.6039712383762 0.420962005448347 a53.60668872367897,53.60668872367897 0 0,0 -0.019854736407480606,0.9225715831669901 l -32.591894439283706 -0.9821234044054519" fill="#94ff23" stroke="none" /><path d="M 120.9764740272857 100.99374915477107 l 29.497168508683842 1.397412464817244 a50.53025078841215,50.53025078841215 0 0,0 -0.048638131381052815,0.8684665090572485 l -29.46874402641526 -1.9049506902099158" fill="#baff1f" stroke="none" /><path d="M 120.95626037817324 101.35467743843564 l 23.038187479451423 1.4892596406832694 a44.086272471226714,44.086272471226714 0 0,0 -0.05547195401673733,0.7568707398857214 l -23.009138966770347 -1.885603517065761" fill="#fff016" stroke="none" /><path d="M 120.92983693683757 101.71520430193887 l 31.38511492431669 2.5720164135768777 a52.490327201289524,52.490327201289524 0 0,0 -0.08154848173764213,0.8998807006494977 l -31.336191846301972 -3.1118785027749456" fill="#a2ff22" stroke="none" /><path d="M 120.89721153311464 102.0752229133903 l 28.593423192846217 2.839504538106958 a49.73406751413948,49.73406751413948 0 0,0 -0.09193152561381888,0.8511717520100875 l -28.540309365731346 -3.331272612001837" fill="#c4ff1e" stroke="none" /><path d="M 120.8583938346157 102.4346265915055 l 17.147038530341845 2.0014309971585087 a38.26344856618789,38.26344856618789 0 0,0 -0.08199035411853849,0.6535437933537634 l -17.11004666697646 -2.296292544799667" fill="#ff9e0e" stroke="none" /><path d="M 120.81339534386255 102.79330883721812 l 26.976732712941626 3.6204734807265027 a48.218595409942424,48.218595409942424 0 0,0 -0.11748334251410737,0.8216782239139309 l -26.91041531941092 -4.084297176620843" fill="#d8ff1c" stroke="none" /><path d="M 120.70491114924044 103.5080841355445 l 31.88447156990801 5.402264616272805 a53.3388928424661,53.3388928424661 0 0,0 -0.16116869107348844,0.9039196104420874 l -31.78675643649533 -5.950302977448111" fill="#97ff23" stroke="none" /><path d="M 120.64145759157962 103.86396538481128 l 23.39951326427486 4.380257977104964 a44.80596313848626,44.80596313848626 0 0,0 -0.1484358980302101,0.7568714461370315 l -23.320647433268984 -4.78239315030994" fill="#fff917" stroke="none" /><path d="M 120.5718875245553 104.21870165774334 l 31.32638172977776 6.424138688137751 a52.97830123949961,52.97830123949961 0 0,0 -0.1908882900015603,0.8917665409033502 l -31.21115940105176 -6.962419048457271" fill="#9cff22" stroke="none" /><path d="M 120.49622156327973 104.57218783832717 l 25.543373565141902 5.6980795998821785 a47.171206395865354,47.171206395865354 0 0,0 -0.18360703405576767,0.7909742972697157 l -25.44150596515558 -6.136922554500459" fill="#e5ff1a" stroke="none" /><path d="M 120.41448212921028 104.9243191809786 l 23.992284007010834 5.787345649202611 a45.68041858511343,45.68041858511343 0 0,0 -0.19096304333517064,0.7628024324987179 l -23.889109649380604 -6.199475921098725" fill="#f9ff18" stroke="none" /><path d="M 120.32669344350535 105.2749913415812 l 31.610615312052133 8.203288082076469 a53.657693362576644,53.657693362576644 0 0,0 -0.23970149682887462,0.8920184408457957 l -31.46472573888148 -8.746197456097812" fill="#93ff23" stroke="none" /><path d="M 120.23288151984713 105.62410040840565 l 15.912377715899847 4.423137155373093 a37.5156866908012,37.5156866908012 0 0,0 -0.17830198876267256,0.6206926139062441 l -15.833883090251076 -4.696387244783918" fill="#ff930d" stroke="none" /><path d="M 120.13307415673323 105.97154293290107 l 42.43879455536993 12.587500633786993 a65.2661999218194,65.2661999218194 0 0,0 -0.32873412438051564,1.0743221389046669 l -42.215833658483284 -13.316149745243717" fill="#33ff55" stroke="none" /><path d="M 120.02730092923936 106.31721596034902 l 28.673688032611043 9.044547756169298 a51.066330496173435,51.066330496173435 0 0,0 -0.27164308707561496,0.83603145708009 l -28.51375269451918 -9.536778113227184" fill="#b3ff20" stroke="none" /><path d="M 119.9155931802556 106.66101706037122 l 17.47542902799767 5.844873905548668 a39.42696857012426,39.42696857012426 0 0,0 -0.22080823866474622,0.6417720996051756 l -17.372229958389692 -6.144818708243144" fill="#ffae10" stroke="none" /><path d="M 119.79798401119884 107.00284435728193 l 17.6369555803695 6.238456137542037 a39.70776675939602,39.70776675939602 0 0,0 -0.2334736116404056,0.6424191063081675 l -17.526957707723867 -6.541123040856335" fill="#ffb210" stroke="none" /><path d="M 119.67450827220406 107.3425965602758 l 11.821630154386332 4.411874477751591 a33.61806545848182,33.61806545848182 0 0,0 -0.20700038918007801,0.5404126965449612 l -11.743935485612747 -4.614710741129697" fill="#ff5808" stroke="none" /><path d="M 119.54520255179757 107.68017299344265 l 24.745952278555908 9.723777171565127 a47.587854307085735,47.587854307085735 0 0,0 -0.30614260523749376,0.7598208396271398 l -24.574907059061022 -10.14829737903508" fill="#e0ff1b" stroke="none" /><path d="M 119.26925614724726 108.34839909993367 l 26.348790747959583 11.415605215047728 a49.715410780721655,49.715410780721655 0 0,0 -0.3469636512457975,0.7823114378304209 l -26.148386011982513 -11.867464989370838" fill="#c4ff1e" stroke="none" /><path d="M 119.12269723197855 108.67885076344098 l 15.697698563862316 7.1244124985367945 a38.23876427274276,38.23876427274276 0 0,0 -0.27718621633283974,0.5970344503375025 l -15.572737730689646 -7.393567016153128" fill="#ff9d0e" stroke="none" /><path d="M 118.97047184881838 109.00673069616215 l 12.155280499096538 5.771039269036063 a34.45569538360886,34.45569538360886 0 0,0 -0.25898663368467056,0.5335891746974227 l -12.054140608797152 -5.979417399698761" fill="#ff6509" stroke="none" /><path d="M 118.81262510543309 109.33194174019688 l 18.097332949564883 8.977123383461848 a41.2015396474948,41.2015396474948 0 0,0 -0.3206290674308274,0.6326315681285312 l -17.940125212347787 -9.287309163293074" fill="#ffc812" stroke="none" /><path d="M 118.64920377521936 109.65438752849418 l 31.07140544502558 16.085157995851908 a55.98806287979779,55.98806287979779 0 0,0 -0.45043060918518124,0.8520449633712732 l -30.789922327615507 -16.617617974309315" fill="#78ff26" stroke="none" /><line stroke="#e1ed5e" stroke-width="0.3" x1="174.80103733775053" x2="179.2010983576182" y1="140.37084112569926" y2="142.7455964860345" /><path d="M 175.68104954172406 140.8457921977663 a86.0,86.0 0 0,1 -30.038265399797805,32.042727171017184" fill="none" id="id77" stroke="none" /><text fill="#e1ed5e" style="font-size:6.75px; font-family:Arial;" text-anchor="middle"><textPath startOffset="22.206326154141568" xlink:href="#id77">May</textPath></text><path d="M 118.48025628344425 109.97397251340804 l 21.305660459168852 11.498870391214611 a45.210642037652434,45.210642037652434 0 0,0 -0.3755144054861837,0.6816677214897282 l -21.10456964423116 -11.863908631102143" fill="#ffff18" stroke="none" /><path d="M 118.30583269289576 110.29060199501025 l 19.355826095172063 10.880854532629328 a43.2045265472332,43.2045265472332 0 0,0 -0.37001180270006745,0.6451467663952335 l -19.165662296319617 -11.212421144882876" fill="#ffe315" stroke="none" /><path d="M 118.12598468904814 110.60418214915192 l 19.89992836122137 11.641986281990366 a44.05521618575273,44.05521618575273 0 0,0 -0.3885651696595432,0.6512575745761948 l -19.6965823158636 -11.982805950452665" fill="#ffef16" stroke="none" /><path d="M 117.94076556474637 110.91462005526583 l 25.412625680996424 15.4602741401291 a50.74595132938907,50.74595132938907 0 0,0 -0.4604237200922459,0.7423496388927427 l -25.142737321236215 -15.895420110387116" fill="#b7ff1f" stroke="none" /><path d="M 117.75023020441432 111.22182372390056 l 28.06336175403263 17.74185996897597 a54.201293169038664,54.201293169038664 0 0,0 -0.505349981008213,0.7843143928759881 l -27.753806909647366 -18.222295961773412" fill="#8dff24" stroke="none" /><path d="M 117.55443506779139 111.5257021239791 l 24.049194869465737 15.789961643115552 a49.76954401030015,49.76954401030015 0 0,0 -0.47635827577117995,0.7120909891383184 l -23.773833488283834 -16.201589546459676" fill="#c4ff1e" stroke="none" /><path d="M 117.35343817320211 111.8261652097733 l 17.678683006753598 12.047815760909895 a42.39359010222705,42.39359010222705 0 0,0 -0.41614172408634886,0.5994831908627717 l -17.468680375505112 -12.350340213959687" fill="#ffd814" stroke="none" /><path d="M 116.93607887273984 112.41649034213515 l 16.370145792360024 12.00158304986094 a41.29826763459956,41.29826763459956 0 0,0 -0.4252516705234708,0.5696941063009905 l -16.161132855141464 -12.281590035671247" fill="#ffc912" stroke="none" /><path d="M 116.71984013943494 112.70617746262583 l 34.954539152562965 26.563566032502614 a64.90265194417285,64.90265194417285 0 0,0 -0.6836201978342624,0.8836712586308239 l -34.49211213751063 -27.16131528524669" fill="#33ff50" stroke="none" /><path d="M 116.498646956653 112.99209946851258 l 21.202034451021298 16.695850347377824 a47.986620456891785,47.986620456891785 0 0,0 -0.5166150164916835,0.6445566662635104 l -20.91150152247476 -17.058334847219584" fill="#dbff1b" stroke="none" /><path d="M 116.27256486870786 113.27417163493432 l 5.4371153916035 4.435269024238281 a28.01668262777926,28.01668262777926 0 0,0 -0.3080554327841573,0.37107261361585664 l -5.3599639589258 -4.528202894967907" fill="#ff0000" stroke="none" /><path d="M 116.0416608686014 113.55231037782055 l 33.97252991851406 28.700660956912387 a65.47314614942334,65.47314614942334 0 0,0 -0.7347255862894636,0.854651845214341 l -33.473461822653825 -29.281189901288254" fill="#34ff57" stroke="none" /><path d="M 115.80600337817218 113.82643327865902 l 11.596372574290209 10.14402362423362 a36.40704618578006,36.40704618578006 0 0,0 -0.4166719695807837,0.46813537493323243 l -11.420041755061087 -10.342133168907718" fill="#ff820c" stroke="none" /><path d="M 115.56566222782051 114.09645910891815 l 17.386778004107097 15.745684416348205 a44.456910007572034,44.456910007572034 0 0,0 -0.5185657045602716,0.562800654329667 l -17.113165891551105 -16.042636325479208" fill="#fff517" stroke="none" /><path d="M 115.07121518719521 114.62390073753431 l 22.235665650672836 21.575709939083982 a51.982835349657705,51.982835349657705 0 0,0 -0.6286442082495276,0.6368132639779707 l -21.86098081736777 -21.955263697042614" fill="#a8ff21" stroke="none" /><path d="M 114.81725581225074 114.88116024355365 l 44.45176743675221 44.643480730660954 a84.0,84.0 0 0,0 -1.033400190496823,1.011399588309712 l -43.67671729387959 -45.40203042189324" fill="#4dd2ff" stroke="none" /><path d="M 114.29624159901734 115.38237550388516 l 23.653888373471887 25.450954404179736 a55.74561145336637,55.74561145336637 0 0,0 -0.7085013720070777,0.6471992049230738 l -23.212287451997945 -25.854346375689392" fill="#7aff26" stroke="none" /><path d="M 114.0293411484842 115.62618273729858 l 21.991995976851644 24.49515941305259 a53.91900244109347,53.91900244109347 0 0,0 -0.6959599016812738,0.6141036953634774 l -21.56709372226378 -24.870086250188358" fill="#90ff24" stroke="none" /><path d="M 113.20401910651253 116.32954008644616 l 12.675050550942457 15.675359479543626 a41.15871526863418,41.15871526863418 0 0,0 -0.5547459983888983,0.4407237717635823 l -12.403347059836207 -15.891217165312336" fill="#ffc712" stroke="none" /><path d="M 112.92097659922987 116.55440617244103 l 25.181887381357775 32.263133417060025 a61.927218693363486,61.927218693363486 0 0,0 -0.8459590460679365,0.6486453229805971 l -24.622799606796345 -32.69181808186799" fill="#35ff2f" stroke="none" /><path d="M 112.63410532772338 116.77436683061366 l 17.319967864025752 22.995810697262964 a49.78868868905353,49.78868868905353 0 0,0 -0.6890162493423897,0.5097177492113952 l -16.9215666442648 -23.290538395214128" fill="#c3ff1e" stroke="none" /><path d="M 112.34349029814194 116.9893568818739 l 11.251087149639638 15.485792938409542 a40.14149275736041,40.14149275736041 0 0,0 -0.5625021113258616,0.4013303210736443 l -10.982857710464891 -15.677167521327405" fill="#ffb911" stroke="none" /><path d="M 111.7513745106137 117.40417183066458 l 34.563952104861514 51.190348927825525 a82.76664640774734,82.76664640774734 0 0,0 -1.1876040315760636,0.787079194060108 l -33.677673374545485 -51.777726142976945" fill="#4bdeff" stroke="none" /><line stroke="#e1ed5e" stroke-width="0.3" x1="143.8653032363475" x2="146.44561519142675" y1="172.8068346515853" y2="177.08958963109032" /><path d="M 144.38136562736335 173.6633856474863 a86.0,86.0 0 0,1 -40.68145358897372,12.25698825130547" fill="none" id="id78" stroke="none" /><text fill="#e1ed5e" style="font-size:6.75px; font-family:Arial;" text-anchor="middle"><textPath startOffset="21.466115282336833" xlink:href="#id78">June</textPath></text><path d="M 110.5260780823613 118.17145234162733 l 18.744043892457363 32.35834824861495 a58.39521203070001,58.39521203070001 0 0,0 -0.874124138464218,0.49635049905863704 l -18.184270987071947 -32.67620191346822" fill="#5cff2a" stroke="none" /><path d="M 110.21172684928248 118.3499491758327 l 8.666046322202606 15.57244057884324 a38.821371003381444,38.821371003381444 0 0,0 -0.5867151223074847,0.31992386493511127 l -8.396708388026473 -15.719305095538122" fill="#ffa60f" stroke="none" /><path d="M 109.89434966115114 118.52300852407294 l 7.517922078450094 14.074147317555568 a36.95621430960063,36.95621430960063 0 0,0 -0.5636862691212184,0.29489401454587383 l -7.27454490680238 -14.201470751046159" fill="#ff8a0c" stroke="none" /><path d="M 109.57404056367764 118.69057910512821 l 15.912034846052228 31.063702314151758 a55.901954879407796,55.901954879407796 0 0,0 -0.8602142034369176,0.43132925935720096 l -15.374966734932551 -31.33299941441826" fill="#79ff26" stroke="none" /><path d="M 108.92500713936063 119.00905698771935 l 8.188229424376996 17.439820195780058 a40.266406763259496,40.266406763259496 0 0,0 -0.6299430151037133,0.28917594148033365 l -7.886818413505862 -17.578183207594467" fill="#ffba11" stroke="none" /><path d="M 108.59647513512805 119.15986991738527 l 11.76747884040576 26.22741999409037 a49.746323552861654,49.746323552861654 0 0,0 -0.7842847257208824,0.34380737575253206 l -11.314273440027124 -26.426091923137356" fill="#c4ff1e" stroke="none" /><path d="M 108.2653958097858 119.30500536409082 l 4.452454521949367 10.399339657495542 a32.31240984856838,32.31240984856838 0 0,0 -0.5131957569958512,0.21451586804567407 l -4.272787305456055 -10.474440568561189" fill="#ff4406" stroke="none" /><path d="M 107.93186726928326 119.44442032107085 l 11.506042365825314 28.206261703288977 a51.46280043263576,51.46280043263576 0 0,0 -0.8231080968183752,0.32753169873916627 l -11.018813192965073 -28.400140246434212" fill="#aeff20" stroke="none" /><path d="M 107.59598834532513 119.57807347666477 l 6.701386278531182 17.272305721393373 a39.52676774257626,39.52676774257626 0 0,0 -0.6364370119455811,0.24064602016748335 l -6.403079045825327 -17.385099991667488" fill="#ffb010" stroke="none" /><path d="M 107.2578585660854 119.70592522655815 l 8.943133458719702 24.281641426875254 a46.87620038652925,46.87620038652925 0 0,0 -0.7595740030255603,0.2723562131363812 l -8.523839895064407 -24.431985181051598" fill="#e9ff1a" stroke="none" /><path d="M 106.91757812671514 119.82793768551818 l 4.125277705197018 11.824333281935079 a33.52328925271924,33.52328925271924 0 0,0 -0.546477931557427,0.18539498491243167 l -3.9211300407023635 -11.893591253745633" fill="#ff5708" stroke="none" /><path d="M 106.57524785965236 119.94407469862006 l 8.59895708949551 26.082399657584038 a48.463314347050776,48.463314347050776 0 0,0 -0.7945183178970272,0.25437967532910516 l -8.148717426507542 -26.22655217957285" fill="#d4ff1c" stroke="none" /><path d="M 106.2309692047433 120.05430185196036 l 5.240213766333749 16.86556700663141 a38.6608943933213,38.6608943933213 0 0,0 -0.6372144314310139,0.19198748104047786 l -4.9491243604624895 -16.953269856777613" fill="#ffa30f" stroke="none" /><path d="M 105.88484417918355 120.15858648285463 l 8.055569485242783 27.594425475415193 a49.74620874219447,49.74620874219447 0 0,0 -0.8240550250653161,0.2328861813466215 l -7.579383292072861 -27.729000450100333" fill="#c4ff1e" stroke="none" /><path d="M 105.18746579009965 120.34920634021253 l 8.209297589446262 32.20314066931747 a54.23303831851577,54.23303831851577 0 0,0 -0.906587140957644,0.2228170620918351 l -7.653757163745406 -32.33967898972334" fill="#8cff24" stroke="none" /><path d="M 104.83641907484287 120.43548508189849 l 3.3977388738019827 14.3565809730876 a35.75317073348526,35.75317073348526 0 0,0 -0.6001082037557325,0.1365826733902345 l -3.150110520653388 -14.412940380055518" fill="#ff780b" stroke="none" /><path d="M 104.13013068566511 120.58985236759428 l 5.857030121536987 29.198927272098878 a50.78056674554585,50.78056674554585 0 0,0 -0.8585117021462821,0.1645358109914072 l -5.353550804819 -29.29542028143875" fill="#b7ff1f" stroke="none" /><path d="M 103.7750983002368 120.6578951692458 l 3.2145431962117033 17.590454892310515 a38.88176141432163,38.88176141432163 0 0,0 -0.6594180627947148,0.11464828268485183 l -2.9112761619449383 -17.643181753516373" fill="#ffa60f" stroke="none" /><path d="M 103.06178313531738 120.77559828337769 l 4.2785658656248025 29.032025367132647 a50.3456065329092,50.3456065329092 0 0,0 -0.8584439170853481,0.11897250474924218 l -3.778193357352624 -29.101372437374494" fill="#bcff1f" stroke="none" /><path d="M 101.26447882468166 120.96189622390904 l 1.3840131197268641 22.943475858954674 a43.98518167876887,43.98518167876887 0 0,0 -0.7561512094779227,0.03908438046311828 l -0.9888738418354618 -22.963900046179994" fill="#ffee16" stroke="none" /><line stroke="#e1ed5e" stroke-width="0.3" x1="102.19456741930631" x2="102.32365962044197" y1="184.97166512339345" y2="189.96999836594603" /><path d="M 102.22038585953345 185.97133177190398 a86.0,86.0 0 0,1 -42.740103519485714,-10.115201625700543" fill="none" id="id79" stroke="none" /><text fill="#e1ed5e" style="font-size:6.75px; font-family:Arial;" text-anchor="middle"><textPath startOffset="22.20632615414155" xlink:href="#id79">July</textPath></text><path d="M 100.54218724476979 120.99299961872073 l 0.615599176085853 23.835443185946133 a44.84339141598912,44.84339141598912 0 0,0 -0.77181949045998,0.013287572474548998 l -0.20521999573320512 -23.842508235699842" fill="#fffa17" stroke="none" /><path d="M 100.18074693466247 120.99922214144158 l 0.14955115399491786 17.37488887495045 a38.375532480028866,38.375532480028866 0 0,0 -0.6605961773147346,0.0 l 0.1495511539949059 -17.37488887495045" fill="#ff9f0e" stroke="none" /><path d="M 99.81925306533755 120.99922214144158 l -0.14311269942233498 16.626867681288203 a37.62748357797421,37.62748357797421 0 0,0 -0.6476233015705497,-0.011149422451999586 l 0.4292956908855526 -16.621940781557043" fill="#ff940d" stroke="none" /><path d="M 99.09653310690486 120.98055641714683 l -0.6398575108418287 14.858946916318812 a35.87271734069336,35.87271734069336 0 0,0 -0.6166894751628877,-0.03187580178772615 l 0.8955350544182054 -14.845731307768885" fill="#ff7a0b" stroke="none" /><path d="M 98.37488393609728 120.93702456842531 l -1.334118351749664 17.187983878942127 a38.23968275808026,38.23968275808026 0 0,0 -0.6558209063373047,-0.056586987349240316 l 1.6297835758285104 -17.162472639314224" fill="#ff9d0e" stroke="none" /><path d="M 97.65516085044442 120.86867818915974 l -1.8468621720577725 16.43676596567871 a37.54019876824556,37.54019876824556 0 0,0 -0.6415308510058735,-0.07768045185806813 l 2.1295204461150354 -16.402539985095295" fill="#ff930d" stroke="none" /><path d="M 96.93821686468263 120.77559828337769 l -4.209800808598231 28.565423018900333 a49.87396431210642,49.87396431210642 0 0,0 -0.8482472091406251,-0.1324787689828255 l 4.700883881347373 -28.488725942570404" fill="#c2ff1e" stroke="none" /><path d="M 96.22490169976321 120.6578951692458 l -5.552393262527503 30.383515562634535 a51.88668141588889,51.88668141588889 0 0,0 -0.8772120130972157,-0.1681197700922644 l 6.074572890196414 -30.283438594193804" fill="#a9ff21" stroke="none" /><path d="M 95.86986931433489 120.58985236759428 l -2.825741527638934 14.087108934592132 a35.36772262107286,35.36772262107286 0 0,0 -0.5958762977682194,-0.12487167179405578 l 3.0678092868365403 -14.036381282071536" fill="#ff730a" stroke="none" /><path d="M 95.16358092515715 120.4354850818985 l -3.995040214578233 16.880378528663957 a38.34668629989822,38.34668629989822 0 0,0 -0.6410227745981809,-0.15754780198961166 l 4.2850162739196245 -16.80910946836032" fill="#ff9f0e" stroke="none" /><path d="M 94.46302465271185 120.25689768951611 l -3.805837766625131 13.923570437997416 a35.43434151070792,35.43434151070792 0 0,0 -0.5869763328720073,-0.16588537481774368 l 4.044945267601752 -13.855996269841151" fill="#ff740a" stroke="none" /><path d="M 93.76903079525671 120.05430185196036 l -9.03745148130272 29.086932389350157 a51.458581140616644,51.458581140616644 0 0,0 -0.843623385648581,-0.270101567336223 l 9.53679621204224 -28.927057975354227" fill="#aeff20" stroke="none" /><path d="M 93.08242187328487 119.8279376855182 l -9.508378830461766 27.253981015783936 a49.86500908006586,49.86500908006586 0 0,0 -0.8080041523317848,-0.28972154161541275 l 9.976102543423277 -27.086271933128565" fill="#c2ff1e" stroke="none" /><path d="M 92.40401165467489 119.57807347666478 l -5.242144133858137 13.511221761037227 a35.49252181630475,35.49252181630475 0 0,0 -0.5676757160105389,-0.22588988289217407 l 5.473940925910534 -13.418985033738986" fill="#ff750a" stroke="none" /><path d="M 91.7346041902142 119.30500536409082 l -11.32076926710215 26.441263849493176 a49.76282758626974,49.76282758626974 0 0,0 -0.7845449230659631,-0.343921438622115 l 11.774234864825857 -26.24247785757661" fill="#c4ff1e" stroke="none" /><path d="M 91.40352486487194 119.15986991738527 l -11.759782847370706 26.21026712351039 a49.72752330610984,49.72752330610984 0 0,0 -0.7779563284418393,-0.35712159403928667 l 12.209207171579965 -26.00395845913703" fill="#c4ff1e" stroke="none" /><path d="M 91.07499286063937 119.00905698771935 l -7.336520159880338 15.625794762188596 a38.262386567516415,38.262386567516415 0 0,0 -0.5937727178300619,-0.2850469880670729 l 7.604405545710642 -15.49719349762196" fill="#ff9e0e" stroke="none" /><line stroke="#e1ed5e" stroke-width="0.3" x1="58.666819895761336" x2="56.23545636021788" y1="174.27360380694188" y2="178.64263932499728" /><path d="M 58.180547188652646 175.14741091055294 a86.0,86.0 0 0,1 -31.652253787137756,-30.449443065178592" fill="none" id="id80" stroke="none" /><text fill="#e1ed5e" style="font-size:6.75px; font-family:Arial;" text-anchor="middle"><textPath startOffset="22.20632615414155" xlink:href="#id80">August</textPath></text><path d="M 89.7882731507175 118.34994917583269 l -18.162623178347566 32.637301911957834 a58.35069419449838,58.35069419449838 0 0,0 -0.8734577462401962,-0.49597210416206866 l 18.72172969150897 -32.31982664200114" fill="#5cff2a" stroke="none" /><path d="M 89.1626897886671 117.98757091392108 l -15.099489774747004 25.06185924282801 a50.25903928985046,50.25903928985046 0 0,0 -0.7371823567949176,-0.4528376133221613 l 15.528651331474231 -24.79823316267747" fill="#bdff1f" stroke="none" /><path d="M 88.8546689885994 117.79835938074946 l -13.726315428337267 21.920021461648044 a46.86308326780318,46.86308326780318 0 0,0 -0.6800016325661884,-0.43400921506744405 l 14.101598862950379 -21.680497817756798" fill="#e9ff1a" stroke="none" /><path d="M 88.54995079064634 117.60387380957326 l -12.536331702417085 19.273978416094547 a43.99229994013444,43.99229994013444 0 0,0 -0.6312377634563319,-0.4183499692756724 l 12.866244164613379 -19.055330425727554" fill="#ffee16" stroke="none" /><path d="M 88.24862548938628 117.40417183066458 l -14.762183783233324 21.863279306364745 a47.38039143147944,47.38039143147944 0 0,0 -0.6719963519875596,-0.462205218486924 l 15.136337019843774 -21.60593329851272" fill="#e2ff1b" stroke="none" /><path d="M 87.36589467227662 116.77436683061367 l -17.337201542619304 23.01869194125061 a49.817333950516606,49.817333950516606 0 0,0 -0.6805315206404424,-0.5218025506743571 l 17.73086179175323 -22.716850048748885" fill="#c3ff1e" stroke="none" /><path d="M 87.07902340077011 116.55440617244103 l -17.691744207633054 22.666732445715024 a49.75375754356199,49.75375754356199 0 0,0 -0.6705918229458306,-0.53275870106469 l 18.079293523296244 -22.358839830645202" fill="#c4ff1e" stroke="none" /><path d="M 86.51685102203217 116.09983520530335 l -18.449801769400842 22.030370542018364 a49.73556005281291,49.73556005281291 0 0,0 -0.6516176005858982,-0.5553226557612534 l 18.826284846563798 -21.70952349603416" fill="#c4ff1e" stroke="none" /><path d="M 86.24171649860922 115.8653595955263 l -18.82833456263745 21.711887125376 a49.73868864349374,49.73868864349374 0 0,0 -0.6420024720579638,-0.5664925372436748 l 19.199279387602 -21.384571446360034" fill="#c4ff1e" stroke="none" /><path d="M 85.97065885151581 115.62618273729859 l -11.526700812352754 12.838687957306758 a38.253890578144606,38.253890578144606 0 0,0 -0.48618955380725903,-0.4441226299598707 l 11.745989915626867 -12.638372560760311" fill="#ff9d0e" stroke="none" /><path d="M 85.44109423537348 115.13401014063109 l -22.795620905547786 23.69609114338493 a53.88077048892031,53.88077048892031 0 0,0 -0.6628618867543554,-0.6487498701226736 l 23.200132744677934 -23.300191170339687" fill="#91ff24" stroke="none" /><path d="M 85.18274418774928 114.88116024355367 l -12.217199442101226 12.269890250193809 a38.3150272584215,38.3150272584215 0 0,0 -0.46335525588233,-0.4693764278866135 l 12.42659532303909 -12.057773328326531" fill="#ff9e0e" stroke="none" /><path d="M 84.9287848128048 114.62390073753433 l -12.434670225636884 12.065608567395756 a38.3262787038058,38.3262787038058 0 0,0 -0.45534073555351084,-0.47742294079958464 l 12.640517512569353 -11.849778510013671" fill="#ff9e0e" stroke="none" /><path d="M 84.43433777217949 114.09645910891817 l -17.692670649998558 16.02270463633096 a44.86959695077447,44.86959695077447 0 0,0 -0.5135243117602166,-0.5769500080964604 l 17.96585381140711 -15.715780458493636" fill="#fffa17" stroke="none" /><path d="M 84.19399662182784 113.82643327865904 l -12.998917933138726 11.37091187425085 a38.27048071955308,38.27048071955308 0 0,0 -0.4294631163757036,-0.4995626281584102 l 13.192723559085207 -11.145472146930912" fill="#ff9e0e" stroke="none" /><line stroke="#e1ed5e" stroke-width="0.3" x1="26.63291911575756" x2="22.317208475507996" y1="142.92168965132927" y2="145.44649492493687" /><path d="M 25.769776987707644 143.4266507060508 a86.0,86.0 0 0,1 -11.730757126820373,-40.83630448921669" fill="none" id="id81" stroke="none" /><text fill="#e1ed5e" style="font-size:6.75px; font-family:Arial;" text-anchor="middle"><textPath startOffset="21.46611528233685" xlink:href="#id81">September</textPath></text><line stroke="#e1ed5e" stroke-width="0.3" x1="15.007084014347285" x2="10.007500721073583" y1="101.09737516637583" y2="101.16192664675087" /><path d="M 14.007167355692545 101.11028546245083 a86.0,86.0 0 0,1 10.666146001902534,-42.60595125391555" fill="none" id="id82" stroke="none" /><text fill="#e1ed5e" style="font-size:6.75px; font-family:Arial;" text-anchor="middle"><textPath startOffset="22.20632615414155" xlink:href="#id82">October</textPath></text><line stroke="#e1ed5e" stroke-width="0.3" x1="26.266209847984243" x2="21.928928074336255" y1="57.711370442889674" y2="55.22380399835377" /><path d="M 25.398753493254645 57.213857153982495 a86.0,86.0 0 0,1 29.58750427330803,-30.492523968695096" fill="none" id="id83" stroke="none" /><text fill="#e1ed5e" style="font-size:6.75px; font-family:Arial;" text-anchor="middle"><textPath startOffset="21.46611528233685" xlink:href="#id83">November</textPath></text><line stroke="#e1ed5e" stroke-width="0.3" x1="56.762969772571076" x2="54.21961505331055" y1="26.818313649435495" y2="22.513508569990535" /><path d="M 56.25429882871897 25.957352633546506 a86.0,86.0 0 0,1 42.265352541879196,-11.944610805530505" fill="none" id="id84" stroke="none" /><text fill="#e1ed5e" style="font-size:6.75px; font-family:Arial;" text-anchor="middle"><textPath startOffset="22.20632615414155" xlink:href="#id84">December</textPath></text></svg>