<?xml version="1.0" encoding="utf-8" ?>
<svg baseProfile="full" height="200mm" version="1.1" viewBox="0,0,200,200" width="200mm" xmlns="http://www.w3.org/2000/svg" xmlns:ev="http://www.w3.org/2001/xml-events" xmlns:xlink="http://www.w3.org/1999/xlink"><defs /><rect fill="#1a1a1a" height="200" width="200" x="0" y="0" /><text alignment-baseline="middle" fill="#e1ed5e" style="dominant-baseline: central; font-size:9.0px; font-family:Arial;" text-anchor="middle" x="100.0" y="100.0">2019</text><line stroke="#e1ed5e" stroke-width="0.3" x1="100.0" x2="100.0" y1="15.0" y2="10.0" /><path d="M 100.0 14.0 a86.0,86.0 0 0,1 42.46469731375804,11.215312516191453" fill="none" id="id1" stroke="none" /><text fill="#e1ed5e" style="font-size:6.75px; font-family:Arial;" text-anchor="middle"><textPath startOffset="22.20632615414155" xlink:href="#id1">January</textPath></text><line stroke="#e1ed5e" stroke-width="0.3" x1="143.23703022742887" x2="145.7803849466894" y1="26.81831364943548" y2="22.513508569990506" /><path d="M 143.74570117128098 25.957352633546492 a86.0,86.0 0 0,1 28.547481713284135,27.462654790039103" fill="none" id="id2" stroke="none" /><text fill="#e1ed5e" style="font-size:6.75px; font-family:Arial;" text-anchor="middle"><textPath startOffset="19.985693538727396" xlink:href="#id2">February</textPath></text><line stroke="#e1ed5e" stroke-width="0.3" x1="172.23445277983987" x2="176.4835382374775" y1="55.19839476539836" y2="52.563006222186495" /><path d="M 173.08426987136738 54.67131705675599 a86.0,86.0 0 0,1 12.851231095245387,41.99856678651699" fill="none" id="id3" stroke="none" /><text fill="#e1ed5e" style="font-size:6.75px; font-family:Arial;" text-anchor="middle"><textPath startOffset="22.20632615414155" xlink:href="#id3">March</textPath></text><line stroke="#e1ed5e" stroke-width="0.3" x1="184.98032266829074" x2="189.97916517819016" y1="98.17113171792111" y2="98.06355123074" /><path d="M 185.9800911702706 98.14961562048488 a86.0,86.0 0 0,1 -9.607161424134198,41.387399972396054" fill="none" id="id4" stroke="none" /><text fill="#e1ed5e" style="font-size:6.75px; font-family:Arial;" text-anchor="middle"><textPath startOffset="21.466115282336823" xlink:href="#id4">April</textPath></text><line stroke="#e1ed5e" stroke-width="0.3" x1="174.80103733775053" x2="179.2010983576182" y1="140.37084112569926" y2="142.7455964860345" /><path d="M 175.68104954172406 140.8457921977663 a86.0,86.0 0 0,1 -30.038265399797805,32.042727171017184" fill="none" id="id5" stroke="none" /><text fill="#e1ed5e" style="font-size:6.75px; font-family:Arial;" text-anchor="middle"><textPath startOffset="22.206326154141568" xlink:href="#id5">May</textPath></text><path d="M 114.0293411484842 115.62618273729858 l 42.088023445452606 46.878548211895726 a84.0,84.0 0 0,0 -1.0842305883736492,0.9567074329108447 l -41.27485050417237 -47.59607878657886" fill="red" stroke="none" /><path d="M 113.48314897796784 116.09983520530334 l 37.91471463601173 45.272855658077376 a80.05215529823879,80.05215529823879 0 0,0 -1.0640451341960864,0.8756367056194589 l -37.129799373270956 -45.918787482554016" fill="red" stroke="none" /><path d="M 112.04921762599082 117.19931262002967 l 30.67467945400388 43.78569777929711 a74.46141870195582,74.46141870195582 0 0,0 -1.056086710551925,0.7263860694303755 l -29.91643585882907 -44.30722463809258" fill="red" stroke="none" /><path d="M 111.45004920935366 117.60387380957326 l 24.446529118579175 37.58530691151663 a65.83623625571664,65.83623625571664 0 0,0 -0.9553094891359294,0.6097237148706531 l -23.795937827396315 -38.0005450552111" fill="red" stroke="none" /><path d="M 111.1453310114006 117.79835938074945 l 22.878457041598434 36.53538868310699 a64.10752165028705,64.10752165028705 0 0,0 -0.9403071480513456,0.5776134504420837 l -22.24617069361478 -36.92379060037745" fill="red" stroke="none" /><line stroke="#e1ed5e" stroke-width="0.3" x1="143.8653032363475" x2="146.44561519142675" y1="172.8068346515853" y2="177.08958963109032" /><path d="M 144.38136562736335 173.6633856474863 a86.0,86.0 0 0,1 -40.68145358897372,12.25698825130547" fill="none" id="id6" stroke="none" /><text fill="#e1ed5e" style="font-size:6.75px; font-family:Arial;" text-anchor="middle"><textPath startOffset="21.466115282336833" xlink:href="#id6">June</textPath></text><path d="M 110.21172684928248 118.3499491758327 l 21.23625826825585 38.160466457711046 a64.67149946482436,64.67149946482436 0 0,0 -0.9773932691611462,0.532952740338136 l -20.576242187226054 -38.52035984980895" fill="red" stroke="none" /><path d="M 105.53697534728816 120.25689768951611 l 12.240395340570169 44.78120644235833 a67.42395640751192,67.42395640751192 0 0,0 -1.1221579594231579,0.29637211621863807 l -11.467746938335512 -44.98526990788056" fill="red" stroke="none" /><path d="M 103.06178313531737 120.77559828337769 l 6.71852403274712 45.58825697075511 a67.0806655638805,67.0806655638805 0 0,0 -1.1437937344087485,0.15851938931680865 l -5.93280170715154 -45.69715092556452" fill="red" stroke="none" /><line stroke="#e1ed5e" stroke-width="0.3" x1="102.19456741930631" x2="102.32365962044197" y1="184.97166512339345" y2="189.96999836594603" /><path d="M 102.22038585953345 185.97133177190398 a86.0,86.0 0 0,1 -42.740103519485714,-10.115201625700543" fill="none" id="id7" stroke="none" /><text fill="#e1ed5e" style="font-size:6.75px; font-family:Arial;" text-anchor="middle"><textPath startOffset="22.20632615414155" xlink:href="#id7">July</textPath></text><path d="M 100.54218724476979 120.99299961872073 l 1.1278465426378 43.669197805683744 a64.68375985209691,64.68375985209691 0 0,0 -1.1133008676119096,0.01916648406424063 l -0.37598598513322246 -43.68214176702715" fill="red" stroke="none" /><path d="M 95.51606077576429 120.51570834832081 l -9.840494819831886 45.023964784278256 a67.08679575751678,67.08679575751678 0 0,0 -1.1260354164914805,-0.2562819947368849 l 10.614050385716228 -44.84790605596368" fill="red" stroke="none" /><path d="M 93.08242187328487 119.8279376855182 l -15.205613494453116 43.5840335035376 a67.16035808115208,67.16035808115208 0 0,0 -1.088255055053301,-0.39020954448182416 l 15.953588110136144 -43.31583641801581" fill="red" stroke="none" /><path d="M 90.42595943632237 118.69057910512821 l -7.926042338792377 15.47333336834006 a38.3852291524764,38.3852291524764 0 0,0 -0.5854827669592079,-0.30629691204860315 l 8.191216008278081 -15.33460703734674" fill="red" stroke="none" /><line stroke="#e1ed5e" stroke-width="0.3" x1="58.666819895761336" x2="56.23545636021788" y1="174.27360380694188" y2="178.64263932499728" /><path d="M 58.180547188652646 175.14741091055294 a86.0,86.0 0 0,1 -31.652253787137756,-30.449443065178592" fill="none" id="id8" stroke="none" /><text fill="#e1ed5e" style="font-size:6.75px; font-family:Arial;" text-anchor="middle"><textPath startOffset="22.20632615414155" xlink:href="#id8">August</textPath></text><line stroke="#e1ed5e" stroke-width="0.3" x1="26.63291911575756" x2="22.317208475507996" y1="142.92168965132927" y2="145.44649492493687" /><path d="M 25.769776987707644 143.4266507060508 a86.0,86.0 0 0,1 -11.730757126820373,-40.83630448921669" fill="none" id="id9" stroke="none" /><text fill="#e1ed5e" style="font-size:6.75px; font-family:Arial;" text-anchor="middle"><textPath startOffset="21.46611528233685" xlink:href="#id9">September</textPath></text><line stroke="#e1ed5e" stroke-width="0.3" x1="15.007084014347285" x2="10.007500721073583" y1="101.09737516637583" y2="101.16192664675087" /><path d="M 14.007167355692545 101.11028546245083 a86.0,86.0 0 0,1 10.666146001902534,-42.60595125391555" fill="none" id="id10" stroke="none" /><text fill="#e1ed5e" style="font-size:6.75px; font-family:Arial;" text-anchor="middle"><textPath startOffset="22.20632615414155" xlink:href="#id10">October</textPath></text><path d="M 79.16333360222342 97.38593545837743 l -28.33843400230838 -3.5551989975925418 a49.56057215140605,49.56057215140605 0 0,0 0.11347955228678577,-0.8455544742204667 l 28.27303845096376 4.042471813877668" fill="red" stroke="none" /><line stroke="#e1ed5e" stroke-width="0.3" x1="26.266209847984243" x2="21.928928074336255" y1="57.71137044288968" y2="55.22380399835378" /><path d="M 25.398753493254645 57.2138571539825 a86.0,86.0 0 0,1 29.58750427330803,-30.4925239686951" fill="none" id="id11" stroke="none" /><text fill="#e1ed5e" style="font-size:6.75px; font-family:Arial;" text-anchor="middle"><textPath startOffset="21.46611528233685" xlink:href="#id11">November</textPath></text><line stroke="#e1ed5e" stroke-width="0.3" x1="56.76296977257108" x2="54.21961505331056" y1="26.818313649435495" y2="22.513508569990535" /><path d="M 56.25429882871898 25.957352633546506 a86.0,86.0 0 0,1 42.26535254187918,-11.944610805530505" fill="none" id="id12" stroke="none" /><text fill="#e1ed5e" style="font-size:6.75px; font-family:Arial;" text-anchor="middle"><textPath startOffset="22.20632615414155" xlink:href="#id12">December</textPath></text></svg>