<?xml version="1.0" encoding="utf-8" ?>
<svg baseProfile="full" height="200mm" version="1.1" viewBox="0,0,200,200" width="200mm" xmlns="http://www.w3.org/2000/svg" xmlns:ev="http://www.w3.org/2001/xml-events" xmlns:xlink="http://www.w3.org/1999/xlink"><defs /><rect fill="#1a1a1a" height="200" width="200" x="0" y="0" /><text alignment-baseline="middle" fill="#e1ed5e" style="dominant-baseline: central; font-size:9.0px; font-family:Arial;" text-anchor="middle" x="100.0" y="100.0">2023</text><line stroke="#e1ed5e" stroke-width="0.3" x1="100.0" x2="100.0" y1="15.0" y2="10.0" /><path d="M 100.0 14.0 a86.0,86.0 0 0,1 42.46469731375804,11.215312516191453" fill="none" id="id49" stroke="none" /><text fill="#e1ed5e" style="font-size:6.75px; font-family:Arial;" text-anchor="middle"><textPath startOffset="22.20632615414155" xlink:href="#id49">January</textPath></text><path d="M 108.76106565485865 80.91482961587045 l 13.170849703127022 -28.691476652562184 a52.570114260276,52.570114260276 0 0,0 0.819146991449144,0.3846004960473587 l -13.662774905875764 28.46051117387482" fill="red" stroke="none" /><path d="M 109.08828744355905 81.06846463323043 l 8.927128466039346 -18.595829998565236 a41.62761537320077,41.62761537320077 0 0,0 0.643302727354377,0.31566585447972206 l -9.245902460404155 18.43940898395068" fill="red" stroke="none" /><path d="M 110.36928655335952 81.73862282372117 l 11.937219925947941 -21.02266866502021 a45.175396943166646,45.175396943166646 0 0,0 0.6729053226665879,0.3897901959217172 l -12.297321981079858 20.814074311708442" fill="red" stroke="none" /><line stroke="#e1ed5e" stroke-width="0.3" x1="143.23703022742887" x2="145.7803849466894" y1="26.81831364943548" y2="22.513508569990506" /><path d="M 143.74570117128098 25.957352633546492 a86.0,86.0 0 0,1 28.547481713284135,27.462654790039103" fill="none" id="id50" stroke="none" /><text fill="#e1ed5e" style="font-size:6.75px; font-family:Arial;" text-anchor="middle"><textPath startOffset="19.985693538727396" xlink:href="#id50">February</textPath></text><path d="M 110.68208982089419 81.91981866633111 l 8.963825187291388 -15.171898715224444 a38.62205074936934,38.62205074936934 0 0,0 0.5694691424986794,0.34309878652172887 l -9.223656396007705 15.0153533192441" fill="red" stroke="none" /><path d="M 117.2510076193507 88.02491185347247 l 20.615965256334892 -14.310932243368372 a46.09623089479151,46.09623089479151 0 0,0 0.4468602302411725,0.655712248222661 l -20.8592499522448 13.953941971875304" fill="red" stroke="none" /><line stroke="#e1ed5e" stroke-width="0.3" x1="172.23445277983987" x2="176.4835382374775" y1="55.19839476539836" y2="52.563006222186495" /><path d="M 173.08426987136738 54.67131705675599 a86.0,86.0 0 0,1 12.851231095245387,41.99856678651699" fill="none" id="id51" stroke="none" /><text fill="#e1ed5e" style="font-size:6.75px; font-family:Arial;" text-anchor="middle"><textPath startOffset="22.20632615414155" xlink:href="#id51">March</textPath></text><path d="M 120.87857604477298 97.74499172005257 l 11.73897086120268 -1.2678774851937693 a32.8072414304793,32.8072414304793 0 0,0 0.055808045825418685,0.5619794053633639 l -11.759056032710328 1.0656225491259705" fill="red" stroke="none" /><line stroke="#e1ed5e" stroke-width="0.3" x1="184.98032266829074" x2="189.97916517819016" y1="98.17113171792111" y2="98.06355123074" /><path d="M 185.9800911702706 98.14961562048488 a86.0,86.0 0 0,1 -9.607161424134198,41.387399972396054" fill="none" id="id52" stroke="none" /><text fill="#e1ed5e" style="font-size:6.75px; font-family:Arial;" text-anchor="middle"><textPath startOffset="21.466115282336823" xlink:href="#id52">April</textPath></text><path d="M 120.99980553446 99.90962569577887 l 62.99941660337998 -0.27112291266339017 a84.0,84.0 0 0,0 -0.006222810841987947,1.4459620871852612 l -62.994749495248485 -0.8133486527255557" fill="red" stroke="none" /><path d="M 120.76222939487914 103.15116336523771 l 12.82889496962113 1.9470907037913345 a33.97581243507939,33.97581243507939 0 0,0 -0.09273495061565104,0.5774606260060821 l -12.79347826464419 -2.1676305594906213" fill="red" stroke="none" /><path d="M 120.70491114924044 103.5080841355445 l 13.839630846083033 2.344882770227066 a35.03687490725627,35.03687490725627 0 0,0 -0.10586735058010562,0.5937603243999198 l -13.797217053163738 -2.582761845360204" fill="red" stroke="none" /><line stroke="#e1ed5e" stroke-width="0.3" x1="174.80103733775053" x2="179.2010983576182" y1="140.37084112569926" y2="142.7455964860345" /><path d="M 175.68104954172406 140.8457921977663 a86.0,86.0 0 0,1 -30.038265399797805,32.042727171017184" fill="none" id="id53" stroke="none" /><text fill="#e1ed5e" style="font-size:6.75px; font-family:Arial;" text-anchor="middle"><textPath startOffset="22.206326154141568" xlink:href="#id53">May</textPath></text><path d="M 118.12598468904814 110.60418214915192 l 13.576332945239722 7.94251512061795 a36.7289657219172,36.7289657219172 0 0,0 -0.3239479460725397,0.5429553910686206 l -13.437604123468954 -8.175032605572675" fill="red" stroke="none" /><path d="M 116.93607887273984 112.41649034213515 l 11.218675780963148 8.224842393128249 a34.91066923875946,34.91066923875946 0 0,0 -0.35947804261980765,0.48157958315137916 l -11.075436471648247 -8.416734855788944" fill="red" stroke="none" /><path d="M 115.56566222782051 114.09645910891815 l 9.527876048339461 8.628564152587536 a33.85428105060098,33.85428105060098 0 0,0 -0.3948917975270035,0.4285770541383438 l -9.377937842816737 -8.791292461527215" fill="red" stroke="none" /><path d="M 112.04921762599082 117.19931262002967 l 17.848540577452646 25.477391041615405 a52.10736014245437,52.10736014245437 0 0,0 -0.7390389751860005,0.5083177460500933 l -17.407344717643763 -25.780849577030594" fill="red" stroke="none" /><path d="M 111.1453310114006 117.79835938074945 l 6.311111906737602 10.078429944641627 a32.89137854281051,32.89137854281051 0 0,0 -0.4824394635278946,0.2963537220101601 l -6.136693243277398 -10.185572133480164" fill="red" stroke="none" /><line stroke="#e1ed5e" stroke-width="0.3" x1="143.8653032363475" x2="146.44561519142675" y1="172.8068346515853" y2="177.08958963109032" /><path d="M 144.38136562736335 173.6633856474863 a86.0,86.0 0 0,1 -40.68145358897372,12.25698825130547" fill="none" id="id54" stroke="none" /><text fill="#e1ed5e" style="font-size:6.75px; font-family:Arial;" text-anchor="middle"><textPath startOffset="21.466115282336833" xlink:href="#id54">June</textPath></text><line stroke="#e1ed5e" stroke-width="0.3" x1="102.19456741930631" x2="102.32365962044197" y1="184.97166512339345" y2="189.96999836594603" /><path d="M 102.22038585953345 185.97133177190398 a86.0,86.0 0 0,1 -42.740103519485714,-10.115201625700543" fill="none" id="id55" stroke="none" /><text fill="#e1ed5e" style="font-size:6.75px; font-family:Arial;" text-anchor="middle"><textPath startOffset="22.20632615414155" xlink:href="#id55">July</textPath></text><path d="M 99.81925306533755 120.99922214144158 l -0.10041794381602699 11.666580753458561 a32.66701290992729,32.66701290992729 0 0,0 -0.5622464417354447,-0.009679582383524154 l 0.3012240754441396 -11.663123693795878" fill="red" stroke="none" /><path d="M 98.73552117531835 120.96189622390904 l -0.580358065698225 9.620885149213628 a30.638373645941535,30.638373645941535 0 0,0 -0.5261589755188544,-0.036287003519199335 l 0.7458798019960095 -9.609469801178143" fill="red" stroke="none" /><path d="M 97.2962882734958 120.8252237178851 l -1.2102309575604542 9.321752091556666 a30.399985161003116,30.399985161003116 0 0,0 -0.5183507387857056,-0.0718386891730068 l 1.3705102875329906 -9.299538836891054" fill="red" stroke="none" /><path d="M 96.58105272829116 120.7198165907248 l -2.4055406571906053 14.578277246612497 a35.77541178216352,35.77541178216352 0 0,0 -0.6067357001061182,-0.10548877864513853 l 2.6561253287687734 -14.534709889446352" fill="red" stroke="none" /><path d="M 92.40401165467489 119.57807347666478 l -2.715348853522511 6.998602018887884 a28.50690013355097,28.50690013355097 0 0,0 -0.4559460448685386,-0.18143034090715282 l 2.835415974432908 -6.950824833574665" fill="red" stroke="none" /><path d="M 91.7346041902142 119.30500536409082 l -5.881689509693989 13.737520881955417 a35.94368600682594,35.94368600682594 0 0,0 -0.5666767292120879,-0.24841442499260144 l 6.11728691356382 -13.634241903668363" fill="red" stroke="none" /><line stroke="#e1ed5e" stroke-width="0.3" x1="58.666819895761336" x2="56.23545636021788" y1="174.27360380694188" y2="178.64263932499728" /><path d="M 58.180547188652646 175.14741091055294 a86.0,86.0 0 0,1 -31.652253787137756,-30.449443065178592" fill="none" id="id56" stroke="none" /><text fill="#e1ed5e" style="font-size:6.75px; font-family:Arial;" text-anchor="middle"><textPath startOffset="22.20632615414155" xlink:href="#id56">August</textPath></text><line stroke="#e1ed5e" stroke-width="0.3" x1="26.63291911575756" x2="22.317208475507996" y1="142.92168965132927" y2="145.44649492493687" /><path d="M 25.769776987707644 143.4266507060508 a86.0,86.0 0 0,1 -11.730757126820373,-40.83630448921669" fill="none" id="id57" stroke="none" /><text fill="#e1ed5e" style="font-size:6.75px; font-family:Arial;" text-anchor="middle"><textPath startOffset="21.46611528233685" xlink:href="#id57">September</textPath></text><path d="M 79.04373962182676 101.35467743843564 l -30.179627091582024 1.9509043686033385 a51.242617599050305,51.242617599050305 0 0,0 -0.04932382341674282,-0.8807100009764155 l 30.2087372658863 -1.4311226512914854" fill="red" stroke="none" /><line stroke="#e1ed5e" stroke-width="0.3" x1="15.007084014347285" x2="10.007500721073583" y1="101.09737516637583" y2="101.16192664675087" /><path d="M 14.007167355692545 101.11028546245083 a86.0,86.0 0 0,1 10.666146001902534,-42.60595125391555" fill="none" id="id58" stroke="none" /><text fill="#e1ed5e" style="font-size:6.75px; font-family:Arial;" text-anchor="middle"><textPath startOffset="22.20632615414155" xlink:href="#id58">October</textPath></text><line stroke="#e1ed5e" stroke-width="0.3" x1="26.266209847984243" x2="21.928928074336255" y1="57.711370442889674" y2="55.22380399835377" /><path d="M 25.398753493254645 57.213857153982495 a86.0,86.0 0 0,1 29.58750427330803,-30.492523968695096" fill="none" id="id59" stroke="none" /><text fill="#e1ed5e" style="font-size:6.75px; font-family:Arial;" text-anchor="middle"><textPath startOffset="21.46611528233685" xlink:href="#id59">November</textPath></text><line stroke="#e1ed5e" stroke-width="0.3" x1="56.762969772571076" x2="54.21961505331055" y1="26.818313649435495" y2="22.513508569990535" /><path d="M 56.25429882871897 25.957352633546506 a86.0,86.0 0 0,1 42.265352541879196,-11.944610805530505" fill="none" id="id60" stroke="none" /><text fill="#e1ed5e" style="font-size:6.75px; font-family:Arial;" text-anchor="middle"><textPath startOffset="22.20632615414155" xlink:href="#id60">December</textPath></text></svg>